<svg width="154" height="16" viewBox="0 0 154 16" fill="none" xmlns="http://www.w3.org/2000/svg">
<g clip-path="url(#clip0_1_6)">
<path d="M8.2 9.59999C7.97333 9.59999 7.78347 9.52319 7.6304 9.36959C7.4768 9.21652 7.4 9.02666 7.4 8.79999C7.4 8.57332 7.4768 8.38319 7.6304 8.22959C7.78347 8.07652 7.97333 7.99999 8.2 7.99999C8.42667 7.99999 8.6168 8.07652 8.7704 8.22959C8.92347 8.38319 9 8.57332 9 8.79999C9 9.02666 8.92347 9.21652 8.7704 9.36959C8.6168 9.52319 8.42667 9.59999 8.2 9.59999ZM5 9.59999C4.77333 9.59999 4.5832 9.52319 4.4296 9.36959C4.27653 9.21652 4.2 9.02666 4.2 8.79999C4.2 8.57332 4.27653 8.38319 4.4296 8.22959C4.5832 8.07652 4.77333 7.99999 5 7.99999C5.22667 7.99999 5.4168 8.07652 5.5704 8.22959C5.72347 8.38319 5.8 8.57332 5.8 8.79999C5.8 9.02666 5.72347 9.21652 5.5704 9.36959C5.4168 9.52319 5.22667 9.59999 5 9.59999ZM11.4 9.59999C11.1733 9.59999 10.9835 9.52319 10.8304 9.36959C10.6768 9.21652 10.6 9.02666 10.6 8.79999C10.6 8.57332 10.6768 8.38319 10.8304 8.22959C10.9835 8.07652 11.1733 7.99999 11.4 7.99999C11.6267 7.99999 11.8165 8.07652 11.9696 8.22959C12.1232 8.38319 12.2 8.57332 12.2 8.79999C12.2 9.02666 12.1232 9.21652 11.9696 9.36959C11.8165 9.52319 11.6267 9.59999 11.4 9.59999ZM8.2 12.8C7.97333 12.8 7.78347 12.7232 7.6304 12.5696C7.4768 12.4165 7.4 12.2267 7.4 12C7.4 11.7733 7.4768 11.5835 7.6304 11.4304C7.78347 11.2768 7.97333 11.2 8.2 11.2C8.42667 11.2 8.6168 11.2768 8.7704 11.4304C8.92347 11.5835 9 11.7733 9 12C9 12.2267 8.92347 12.4165 8.7704 12.5696C8.6168 12.7232 8.42667 12.8 8.2 12.8ZM5 12.8C4.77333 12.8 4.5832 12.7232 4.4296 12.5696C4.27653 12.4165 4.2 12.2267 4.2 12C4.2 11.7733 4.27653 11.5835 4.4296 11.4304C4.5832 11.2768 4.77333 11.2 5 11.2C5.22667 11.2 5.4168 11.2768 5.5704 11.4304C5.72347 11.5835 5.8 11.7733 5.8 12C5.8 12.2267 5.72347 12.4165 5.5704 12.5696C5.4168 12.7232 5.22667 12.8 5 12.8ZM11.4 12.8C11.1733 12.8 10.9835 12.7232 10.8304 12.5696C10.6768 12.4165 10.6 12.2267 10.6 12C10.6 11.7733 10.6768 11.5835 10.8304 11.4304C10.9835 11.2768 11.1733 11.2 11.4 11.2C11.6267 11.2 11.8165 11.2768 11.9696 11.4304C12.1232 11.5835 12.2 11.7733 12.2 12C12.2 12.2267 12.1232 12.4165 11.9696 12.5696C11.8165 12.7232 11.6267 12.8 11.4 12.8ZM2.6 16C2.16 16 1.7832 15.8435 1.4696 15.5304C1.15653 15.2168 1 14.84 1 14.4V3.19999C1 2.75999 1.15653 2.38346 1.4696 2.07039C1.7832 1.75679 2.16 1.59999 2.6 1.59999H3.4V-1.04904e-05H5V1.59999H11.4V-1.04904e-05H13V1.59999H13.8C14.24 1.59999 14.6168 1.75679 14.9304 2.07039C15.2435 2.38346 15.4 2.75999 15.4 3.19999V14.4C15.4 14.84 15.2435 15.2168 14.9304 15.5304C14.6168 15.8435 14.24 16 13.8 16H2.6ZM2.6 14.4H13.8V6.39999H2.6V14.4Z" fill="#AAAAAA"/>
</g>
<path d="M58.9872 3.04239C56.2573 0.319202 51.7774 0.319202 49.0475 3.04239C46.3175 5.76559 46.3175 10.2344 49.0475 12.9576C51.7774 15.6808 56.1873 15.6808 58.9172 12.9576C61.6471 10.2344 61.7171 5.76559 58.9872 3.04239ZM55.9773 10.9327L54.0173 8.97756L52.0574 10.9327L51.0774 9.95511L53.0374 8L51.0774 6.04489L52.0574 5.06733L54.0173 7.02244L55.9773 5.06733L56.9573 6.04489L54.9973 8L56.9573 9.95511L55.9773 10.9327Z" fill="#AAAAAA"/>
<path d="M103.727 12L104.667 11.06L101.613 8L104.667 4.94L103.727 4L99.7266 8L103.727 12Z" fill="black"/>
<path d="M99.3333 12L100.273 11.06L97.22 8L100.273 4.94L99.3333 4L95.3333 8L99.3333 12Z" fill="black"/>
<path d="M142.273 4L141.333 4.94L144.387 8L141.333 11.06L142.273 12L146.273 8L142.273 4Z" fill="black"/>
<path d="M146.667 4L145.727 4.94L148.78 8L145.727 11.06L146.667 12L150.667 8L146.667 4Z" fill="black"/>
<defs>
<clipPath id="clip0_1_6">
<rect width="16" height="16" fill="white"/>
</clipPath>
</defs>
</svg>
